<?xml version="1.0" encoding="UTF-8" standalone="no"?><!DOCTYPE svg PUBLIC "-//W3C//DTD SVG 1.1//EN" "http://www.w3.org/Graphics/SVG/1.1/DTD/svg11.dtd"><svg width="100%" height="100%" viewBox="0 0 139 47" version="1.1" xmlns="http://www.w3.org/2000/svg" xmlns:xlink="http://www.w3.org/1999/xlink" xml:space="preserve" xmlns:serif="http://www.serif.com/" style="fill-rule:evenodd;clip-rule:evenodd;stroke-linejoin:round;stroke-miterlimit:2;"><rect id="Artboard1" x="0" y="0" width="138.84" height="46.32" style="fill:none;"/><g id="OnLight"><g><g><path d="M6.524,23.453c0,0.752 0.16,1.369 0.481,1.852c0.321,0.482 0.75,0.873 1.287,1.172c0.538,0.299 1.161,0.545 1.868,0.738c0.708,0.193 1.439,0.367 2.193,0.521c1.038,0.232 2.018,0.487 2.943,0.767c0.924,0.28 1.778,0.699 2.561,1.259c0.783,0.56 1.415,1.317 1.896,2.272c0.481,0.955 0.721,2.195 0.721,3.719c0,1.389 -0.27,2.619 -0.81,3.69c-0.54,1.071 -1.303,1.968 -2.287,2.692c-0.984,0.724 -2.161,1.273 -3.531,1.65c-1.37,0.376 -2.875,0.564 -4.515,0.564c-1.003,0 -1.915,-0.053 -2.735,-0.159c-0.82,-0.106 -1.543,-0.241 -2.17,-0.405c-0.627,-0.164 -1.163,-0.333 -1.607,-0.507c-0.443,-0.173 -0.81,-0.337 -1.1,-0.492l0,-3.762c1.137,0.463 2.264,0.829 3.382,1.099c1.118,0.271 2.349,0.406 3.694,0.406c1.061,0 2.018,-0.097 2.87,-0.29c0.853,-0.193 1.587,-0.477 2.202,-0.854c0.616,-0.376 1.09,-0.849 1.421,-1.418c0.332,-0.569 0.498,-1.23 0.498,-1.982c0,-0.772 -0.152,-1.409 -0.455,-1.911c-0.303,-0.501 -0.71,-0.916 -1.222,-1.244c-0.511,-0.328 -1.103,-0.598 -1.775,-0.81c-0.673,-0.213 -1.379,-0.406 -2.117,-0.579c-0.966,-0.213 -1.946,-0.463 -2.941,-0.753c-0.994,-0.289 -1.899,-0.694 -2.713,-1.215c-0.815,-0.521 -1.473,-1.23 -1.975,-2.128c-0.502,-0.897 -0.753,-2.05 -0.753,-3.458c0,-1.447 0.261,-2.702 0.782,-3.763c0.521,-1.061 1.225,-1.939 2.113,-2.634c0.887,-0.694 1.919,-1.215 3.096,-1.563c1.177,-0.347 2.422,-0.521 3.734,-0.521c1.524,0 2.938,0.145 4.24,0.435c1.302,0.289 2.484,0.656 3.546,1.099l0,3.821c-1.13,-0.444 -2.274,-0.806 -3.432,-1.085c-1.158,-0.28 -2.348,-0.43 -3.572,-0.449c-1.036,0 -1.921,0.106 -2.655,0.318c-0.734,0.213 -1.337,0.507 -1.807,0.883c-0.471,0.376 -0.815,0.82 -1.031,1.331c-0.217,0.512 -0.325,1.076 -0.325,1.694Z" style="fill:#f00;fill-rule:nonzero;"/><path d="M39.741,16.13l5.846,0l-13.429,12.648l13.4,14.848l-5.586,0l-13.197,-14.645l-0.058,0l0,14.645l-4.486,0l0,-41.909l4.486,0l0,26.685l0.058,0l12.966,-12.272Z" style="fill:#f00;fill-rule:nonzero;"/><path d="M8.045,23.453c0,0.752 0.16,1.369 0.481,1.852c0.32,0.482 0.749,0.873 1.287,1.172c0.538,0.299 1.16,0.545 1.868,0.738c0.707,0.193 1.438,0.367 2.193,0.521c1.037,0.232 2.018,0.487 2.942,0.767c0.925,0.28 1.779,0.699 2.561,1.259c0.783,0.56 1.415,1.317 1.896,2.272c0.481,0.955 0.722,2.195 0.722,3.719c0,1.389 -0.27,2.619 -0.81,3.69c-0.541,1.071 -1.303,1.968 -2.287,2.692c-0.984,0.724 -2.161,1.273 -3.531,1.65c-1.37,0.376 -2.875,0.564 -4.515,0.564c-1.003,0 -1.915,-0.053 -2.735,-0.159c-0.82,-0.106 -1.544,-0.241 -2.171,-0.405c-0.627,-0.164 -1.162,-0.333 -1.606,-0.507c-0.444,-0.173 -0.81,-0.337 -1.1,-0.492l0,-3.762c1.137,0.463 2.264,0.829 3.382,1.099c1.117,0.271 2.349,0.406 3.694,0.406c1.061,0 2.017,-0.097 2.87,-0.29c0.852,-0.193 1.586,-0.477 2.202,-0.854c0.616,-0.376 1.09,-0.849 1.421,-1.418c0.332,-0.569 0.497,-1.23 0.497,-1.982c0,-0.772 -0.151,-1.409 -0.454,-1.911c-0.303,-0.501 -0.71,-0.916 -1.222,-1.244c-0.511,-0.328 -1.103,-0.598 -1.776,-0.81c-0.672,-0.213 -1.378,-0.406 -2.116,-0.579c-0.966,-0.213 -1.947,-0.463 -2.941,-0.753c-0.995,-0.289 -1.899,-0.694 -2.713,-1.215c-0.815,-0.521 -1.473,-1.23 -1.975,-2.128c-0.502,-0.897 -0.753,-2.05 -0.753,-3.458c0,-1.447 0.26,-2.702 0.781,-3.763c0.521,-1.061 1.226,-1.939 2.113,-2.634c0.888,-0.694 1.92,-1.215 3.097,-1.563c1.177,-0.347 2.422,-0.521 3.734,-0.521c1.524,0 2.937,0.145 4.24,0.435c1.302,0.289 2.484,0.656 3.545,1.099l0,3.821c-1.129,-0.444 -2.273,-0.806 -3.431,-1.085c-1.158,-0.28 -2.349,-0.43 -3.572,-0.449c-1.036,0 -1.921,0.106 -2.655,0.318c-0.735,0.213 -1.337,0.507 -1.808,0.883c-0.471,0.376 -0.814,0.82 -1.031,1.331c-0.216,0.512 -0.324,1.076 -0.324,1.694Z" style="fill:#00edff;fill-rule:nonzero;"/><path d="M41.261,16.13l5.847,0l-13.429,12.648l13.4,14.848l-5.586,0l-13.198,-14.645l-0.058,0l0,14.645l-4.486,0l0,-41.909l4.486,0l0,26.685l0.058,0l12.966,-12.272Z" style="fill:#00edff;fill-rule:nonzero;"/><path d="M12.411,15.422c1.203,0.044 2.332,0.184 3.389,0.419c1.302,0.289 2.484,0.656 3.546,1.099l0,3.276c-0.633,-0.205 -1.27,-0.386 -1.911,-0.54c-1.158,-0.28 -2.349,-0.43 -3.572,-0.449c-0.29,0 -0.567,0.008 -0.832,0.025c-0.229,-0.013 -0.458,-0.021 -0.689,-0.025c-1.036,0 -1.921,0.106 -2.655,0.318c-0.734,0.213 -1.337,0.507 -1.807,0.883c-0.471,0.376 -0.815,0.82 -1.031,1.331c-0.217,0.512 -0.325,1.076 -0.325,1.694c0,0.752 0.16,1.369 0.481,1.852c0.321,0.482 0.75,0.873 1.287,1.172c0.538,0.299 1.161,0.545 1.868,0.738c0.708,0.193 1.439,0.367 2.193,0.521c1.038,0.232 2.018,0.487 2.943,0.767c0.924,0.28 1.778,0.699 2.561,1.259c0.783,0.56 1.415,1.317 1.896,2.272c0.481,0.955 0.721,2.195 0.721,3.719c0,1.389 -0.27,2.619 -0.81,3.69c-0.54,1.071 -1.303,1.968 -2.287,2.692c-0.984,0.724 -2.161,1.273 -3.531,1.65c-1.169,0.321 -2.437,0.505 -3.803,0.552c-0.69,-0.021 -1.332,-0.07 -1.926,-0.147c-0.82,-0.106 -1.544,-0.241 -2.171,-0.405c-0.627,-0.164 -1.162,-0.333 -1.606,-0.507c-0.444,-0.173 -0.81,-0.337 -1.1,-0.492l0,-3.199c0.623,0.209 1.244,0.387 1.861,0.536c1.118,0.271 2.349,0.406 3.694,0.406c0.25,0 0.494,-0.006 0.732,-0.016c0.258,0.01 0.521,0.016 0.789,0.016c1.061,0 2.017,-0.097 2.87,-0.29c0.852,-0.193 1.586,-0.477 2.202,-0.854c0.616,-0.376 1.09,-0.849 1.421,-1.418c0.332,-0.569 0.497,-1.23 0.497,-1.982c0,-0.772 -0.151,-1.409 -0.454,-1.911c-0.303,-0.501 -0.71,-0.916 -1.222,-1.244c-0.511,-0.328 -1.103,-0.598 -1.776,-0.81c-0.672,-0.213 -1.378,-0.406 -2.116,-0.579c-0.966,-0.213 -1.947,-0.463 -2.941,-0.753c-0.995,-0.289 -1.899,-0.694 -2.713,-1.215c-0.815,-0.521 -1.473,-1.23 -1.975,-2.128c-0.502,-0.897 -0.753,-2.05 -0.753,-3.458c0,-1.447 0.26,-2.702 0.781,-3.763c0.521,-1.061 1.226,-1.939 2.113,-2.634c0.888,-0.694 1.92,-1.215 3.097,-1.563c0.975,-0.287 1.996,-0.456 3.064,-0.505Z" style="fill-rule:nonzero;"/><path d="M26.717,1.717l0,26.685l0.058,0l1.462,-1.385l0,1.385l0.058,0l12.966,-12.272l4.326,0l-13.429,12.648l13.4,14.848l-4.065,0l-13.198,-14.645l-0.058,0l0,1.623l-1.462,-1.623l-0.058,0l0,14.645l-2.966,0l0,-41.909l2.966,0Z" style="fill-rule:nonzero;"/></g></g></g><g><path d="M51.107,42.269l0,-2.062c1.046,0.773 2.199,1.16 3.457,1.16c1.687,0 2.531,-0.563 2.531,-1.688c0,-0.32 -0.072,-0.591 -0.217,-0.814c-0.145,-0.223 -0.34,-0.42 -0.586,-0.592c-0.246,-0.172 -0.535,-0.326 -0.867,-0.463c-0.332,-0.136 -0.69,-0.279 -1.072,-0.427c-0.532,-0.211 -0.998,-0.424 -1.401,-0.639c-0.402,-0.215 -0.738,-0.457 -1.008,-0.727c-0.269,-0.269 -0.472,-0.576 -0.609,-0.92c-0.137,-0.343 -0.205,-0.746 -0.205,-1.207c0,-0.562 0.129,-1.06 0.387,-1.494c0.258,-0.433 0.601,-0.797 1.031,-1.09c0.43,-0.293 0.92,-0.513 1.471,-0.662c0.55,-0.148 1.119,-0.222 1.705,-0.222c1.039,0 1.968,0.179 2.789,0.539l0,1.945c-0.883,-0.578 -1.899,-0.867 -3.047,-0.867c-0.359,0 -0.684,0.041 -0.973,0.123c-0.289,0.082 -0.537,0.197 -0.744,0.346c-0.207,0.148 -0.367,0.326 -0.48,0.533c-0.114,0.207 -0.17,0.435 -0.17,0.685c0,0.313 0.056,0.575 0.17,0.785c0.113,0.211 0.279,0.399 0.498,0.563c0.218,0.164 0.484,0.312 0.797,0.445c0.312,0.133 0.668,0.278 1.066,0.434c0.531,0.203 1.008,0.412 1.43,0.627c0.422,0.215 0.781,0.457 1.078,0.726c0.297,0.27 0.525,0.58 0.685,0.932c0.16,0.352 0.241,0.77 0.241,1.254c0,0.594 -0.131,1.109 -0.393,1.547c-0.262,0.437 -0.611,0.801 -1.049,1.09c-0.437,0.289 -0.941,0.504 -1.512,0.644c-0.57,0.141 -1.168,0.211 -1.793,0.211c-1.234,0 -2.304,-0.238 -3.21,-0.715Z" style="fill-rule:nonzero;"/><path d="M67.343,42.586c-0.453,0.25 -1.051,0.375 -1.793,0.375c-2.101,0 -3.152,-1.172 -3.152,-3.516l0,-7.101l-2.063,0l0,-1.641l2.063,0l0,-2.93l1.922,-0.621l0,3.551l3.023,0l0,1.641l-3.023,0l0,6.761c0,0.805 0.136,1.379 0.41,1.723c0.273,0.344 0.726,0.516 1.359,0.516c0.485,0 0.903,-0.133 1.254,-0.399l0,1.641Z" style="fill-rule:nonzero;"/><path d="M79.314,37.183l-8.473,0c0.032,1.336 0.391,2.368 1.079,3.094c0.687,0.727 1.632,1.09 2.835,1.09c1.352,0 2.594,-0.445 3.727,-1.336l0,1.805c-1.055,0.765 -2.449,1.148 -4.184,1.148c-1.695,0 -3.027,-0.545 -3.996,-1.635c-0.968,-1.089 -1.453,-2.623 -1.453,-4.599c0,-1.867 0.529,-3.389 1.588,-4.565c1.059,-1.175 2.373,-1.763 3.943,-1.763c1.571,0 2.786,0.507 3.645,1.523c0.859,1.016 1.289,2.426 1.289,4.231l0,1.007Zm-1.969,-1.629c-0.008,-1.109 -0.275,-1.972 -0.802,-2.589c-0.528,-0.618 -1.26,-0.926 -2.198,-0.926c-0.906,0 -1.675,0.324 -2.308,0.972c-0.633,0.649 -1.024,1.497 -1.172,2.543l6.48,0Z" style="fill-rule:nonzero;"/><path d="M87.23,32.648c-0.336,-0.258 -0.82,-0.387 -1.453,-0.387c-0.82,0 -1.506,0.387 -2.057,1.161c-0.55,0.773 -0.826,1.828 -0.826,3.164l0,6.117l-1.922,0l0,-12l1.922,0l0,2.473l0.047,0c0.273,-0.844 0.691,-1.502 1.254,-1.975c0.562,-0.473 1.191,-0.709 1.887,-0.709c0.5,0 0.882,0.055 1.148,0.164l0,1.992Z" style="fill-rule:nonzero;"/><path d="M98.241,37.183l-8.473,0c0.031,1.336 0.391,2.368 1.078,3.094c0.688,0.727 1.633,1.09 2.836,1.09c1.352,0 2.594,-0.445 3.727,-1.336l0,1.805c-1.055,0.765 -2.45,1.148 -4.184,1.148c-1.695,0 -3.027,-0.545 -3.996,-1.635c-0.969,-1.089 -1.453,-2.623 -1.453,-4.599c0,-1.867 0.529,-3.389 1.588,-4.565c1.058,-1.175 2.373,-1.763 3.943,-1.763c1.57,0 2.785,0.507 3.645,1.523c0.859,1.016 1.289,2.426 1.289,4.231l0,1.007Zm-1.969,-1.629c-0.008,-1.109 -0.276,-1.972 -0.803,-2.589c-0.527,-0.618 -1.26,-0.926 -2.197,-0.926c-0.906,0 -1.676,0.324 -2.309,0.972c-0.633,0.649 -1.023,1.497 -1.172,2.543l6.481,0Z" style="fill-rule:nonzero;"/><path d="M105.418,42.984c-1.773,0 -3.189,-0.56 -4.248,-1.682c-1.058,-1.121 -1.587,-2.607 -1.587,-4.458c0,-2.016 0.55,-3.59 1.652,-4.723c1.101,-1.133 2.59,-1.699 4.465,-1.699c1.789,0 3.185,0.55 4.189,1.652c1.004,1.102 1.506,2.629 1.506,4.582c0,1.914 -0.541,3.447 -1.623,4.6c-1.082,1.152 -2.533,1.728 -4.354,1.728Zm0.141,-10.945c-1.234,0 -2.211,0.42 -2.93,1.26c-0.718,0.839 -1.078,1.998 -1.078,3.474c0,1.422 0.364,2.543 1.09,3.363c0.727,0.821 1.699,1.231 2.918,1.231c1.242,0 2.197,-0.402 2.865,-1.207c0.668,-0.805 1.002,-1.949 1.002,-3.434c0,-1.5 -0.334,-2.656 -1.002,-3.468c-0.668,-0.813 -1.623,-1.219 -2.865,-1.219Z" style="fill-rule:nonzero;"/><path d="M123.538,42.703l-2.695,0l-5.297,-5.766l-0.047,0l0,5.766l-1.922,0l0,-17.766l1.922,0l0,11.262l0.047,0l5.039,-5.496l2.52,0l-5.567,5.789l6,6.211Z" style="fill-rule:nonzero;"/><path d="M126.251,27.656c-0.343,0 -0.636,-0.117 -0.879,-0.352c-0.242,-0.234 -0.363,-0.531 -0.363,-0.89c0,-0.36 0.121,-0.658 0.363,-0.897c0.243,-0.238 0.536,-0.357 0.879,-0.357c0.352,0 0.651,0.119 0.897,0.357c0.246,0.239 0.369,0.537 0.369,0.897c0,0.344 -0.123,0.637 -0.369,0.879c-0.246,0.242 -0.545,0.363 -0.897,0.363Zm0.938,15.047l-1.922,0l0,-12l1.922,0l0,12Z" style="fill-rule:nonzero;"/><path d="M136.406,42.586c-0.453,0.25 -1.051,0.375 -1.793,0.375c-2.102,0 -3.152,-1.172 -3.152,-3.516l0,-7.101l-2.063,0l0,-1.641l2.063,0l0,-2.93l1.921,-0.621l0,3.551l3.024,0l0,1.641l-3.024,0l0,6.761c0,0.805 0.137,1.379 0.411,1.723c0.273,0.344 0.726,0.516 1.359,0.516c0.484,0 0.902,-0.133 1.254,-0.399l0,1.641Z" style="fill-rule:nonzero;"/></g></svg>