
<svg xmlns="http://www.w3.org/2000/svg" version="1.1" xmlns:xlink="http://www.w3.org/1999/xlink" preserveAspectRatio="none" x="0px" y="0px" width="550px" height="160px" viewBox="0 0 550 160">
<defs>
<g id="Symbol_14_0_Layer0_0_FILL">
<path fill="#000000" stroke="none" d="
M 135.7 93.1
L 126.85 93.1 126.85 102.55 135.7 102.55 135.7 132.35
Q 135.7 147.05 150.95 147.05 156.7 147.05 160.2 145.3
L 160.2 135.85
Q 157.95 137.6 154.95 137.6 150.95 137.6 149.35 135.65 147.6 133.55 147.6 128.85
L 147.6 102.55 160.2 102.55 160.2 93.1 147.6 93.1 147.6 77.5 135.7 81 135.7 93.1
M 99.15 93
Q 95.3 93.95 92.25 95.9 89.25 97.9 87.4 100.8 85.65 103.7 85.65 107.55 85.65 110.6 86.45 112.9 87.4 115.25 89.15 117.1 90.85 118.85 93.45 120.35 96 121.75 99.25 123.05 101.95 124.1 104.05 124.8 106.15 125.6 107.75 126.55 109.3 127.6 110.2 128.85 111.15 130.05 111.15 131.9 111.15 138.3 100.3 138.3 92.25 138.3 85.5 133.2
L 85.5 144.25
Q 91.9 147.15 100.55 147.15 105.1 147.15 109.05 146.25 113.1 145.2 116.15 143.2 119.3 141.35 121.15 138.3 123 135.3 123 131.3 123 128.05 121.95 125.6 120.9 123.3 119.05 121.4 117.1 119.55 114.4 118.15 111.7 116.65 108.35 115.25 105.8 114.45 103.8 113.75 101.8 112.9 100.4 112.1 98.9 111.15 98.2 109.9 97.5 108.7 97.5 107.1 97.5 105.7 98.2 104.55 98.9 103.35 100.2 102.55 101.45 101.75 103.35 101.25 105.2 100.8 107.4 100.8 114.65 100.8 120.2 104.55
L 120.2 94.15
Q 114.4 91.95 107.2 91.95 103 91.95 99.15 93
M 205.7 98.8
Q 199.8 91.95 188.95 91.95 178.25 91.95 170.9 99.65 163.65 107.45 163.65 119.65 163.65 132.7 170.3 139.95 176.85 147.15 188.5 147.15 200.35 147.15 207.6 142.6
L 207.6 132.95
Q 200.5 137.95 192.1 137.95 184.5 137.95 180.2 134 175.9 130.05 175.65 122.8
L 211.65 122.8 211.65 118.15
Q 211.65 105.8 205.7 98.8
M 197.1 104.3
Q 200.15 107.9 200.15 114.3
L 175.65 114.3
Q 176.6 108.25 180.1 104.55 183.7 100.7 188.85 100.7 194.05 100.7 197.1 104.3
M 291.9 98.8
Q 285.95 91.95 275.15 91.95 264.4 91.95 257.1 99.65 249.85 107.45 249.85 119.65 249.85 132.7 256.5 139.95 263 147.15 274.65 147.15 286.55 147.15 293.75 142.6
L 293.75 132.95
Q 286.65 137.95 278.3 137.95 270.7 137.95 266.4 134 262.1 130.05 261.85 122.8
L 297.85 122.8 297.85 118.15
Q 297.85 105.8 291.9 98.8
M 275 100.7
Q 280.25 100.7 283.3 104.3 286.3 107.9 286.3 114.3
L 261.85 114.3
Q 262.8 108.25 266.3 104.55 269.9 100.7 275 100.7
M 248.8 93.25
Q 247.2 92.2 243.9 92.2 239.4 92.2 235.75 95.35 232.15 98.45 230.4 104.05
L 230.2 104.05 230.2 93.1 218.3 93.1 218.3 145.9 230.2 145.9 230.2 120.6
Q 230.2 112.45 233.8 107.65 237.3 102.8 242.65 102.8 246.7 102.8 248.8 104.55
L 248.8 93.25
M 352.85 98.35
Q 345.8708984375 91.3708984375 336.5 90.05 327.11484375 91.37578125 320.05 98.4 311.4 107.1 311.4 119.35 311.4 131.6 320.05 140.25 326.713671875 146.913671875 335.45 148.45 345.4779296875 147.4150390625 352.85 140 360.2904296875 132.6025390625 361.3 122.55 360.4029296875 128.9970703125 355.55 133.85 349.55 139.85 341.1 139.85 338.691015625 139.85 336.45 139.35 336.4326171875 139.3408203125 336.4 139.3 336.3453125 139.3408203125 336.3 139.35 334.2 139.8 331.9 139.8 323.45 139.8 317.45 133.8 311.5 127.85 311.5 119.4 311.5 110.95 317.45 104.95 323.45 99 331.9 99 334.2 99 336.3 99.45
L 336.35 99.45
Q 336.423046875 99.4419921875 336.5 99.4 338.6958984375 98.95 341.1 98.95 349.55 98.95 355.55 104.95 360.7158203125 110.1158203125 361.4 117.1 360.7451171875 106.2451171875 352.85 98.35
M 456.95 94.5
L 448.1 94.5 448.1 103.95 456.95 103.95 456.95 133.75
Q 456.95 148.45 472.2 148.45 477.9 148.45 481.4 146.7
L 481.4 137.25
Q 479.2 139 476.2 139 472.2 139 470.6 137.05 468.85 134.95 468.85 130.25
L 468.85 103.95 481.4 103.95 481.4 94.5 468.85 94.5 468.85 78.9 456.95 82.4 456.95 94.5
M 441.25 94.5
L 429.35 94.5 429.35 147.3 441.25 147.3 441.25 94.5
M 423.3 94.5
L 408.95 94.5 389.65 118.75 389.4 118.75 389.4 69.25 377.4 69.25 377.4 147.3 389.4 147.3 389.4 122 389.65 122 410 147.3 425.15 147.3 401.5 120 423.3 94.5
M 435.3 69.95
Q 432.4 69.95 430.4 71.8 428.2 73.8 428.2 76.7 428.2 79.7 430.4 81.6 432.4 83.45 435.3 83.45 438.45 83.45 440.55 81.6 442.65 79.5 442.65 76.7 442.65 73.8 440.55 71.8 438.45 69.95 435.3 69.95 Z"/>

<path fill="#00CCFF" stroke="none" d="
M 336.35 99.45
L 336.3 99.45
Q 334.2 99 331.9 99 323.45 99 317.45 104.95 311.5 110.95 311.5 119.4 311.5 127.85 317.45 133.8 323.45 139.8 331.9 139.8 334.2 139.8 336.3 139.35 336.3453125 139.3408203125 336.4 139.3 330.906640625 138.106640625 326.65 133.85 320.65 127.85 320.65 119.4 320.65 110.95 326.65 104.95 330.88359375 100.71640625 336.35 99.45
M 341 89.75
Q 338.69765625 89.75 336.5 90.05 345.8708984375 91.3708984375 352.85 98.35 360.7451171875 106.2451171875 361.4 117.1 361.55 118.2251953125 361.55 119.4 361.55 121.0154296875 361.3 122.55 360.2904296875 132.6025390625 352.85 140 345.4779296875 147.4150390625 335.45 148.45 338.1328125 148.95 341 148.95 353.25 148.95 361.9 140.25 370.6 131.6 370.6 119.35 370.6 107.1 361.9 98.4 353.25 89.75 341 89.75 Z"/>

<path fill="#FF0000" stroke="none" d="
M 361.4 117.1
Q 360.7158203125 110.1158203125 355.55 104.95 349.55 98.95 341.1 98.95 338.6958984375 98.95 336.5 99.4 336.423046875 99.4419921875 336.35 99.45 341.9677734375 100.6177734375 346.3 104.95 352.3 110.95 352.3 119.4 352.3 127.85 346.3 133.8 341.984765625 138.16484375 336.4 139.3 336.4326171875 139.3408203125 336.45 139.35 338.691015625 139.85 341.1 139.85 349.55 139.85 355.55 133.85 360.4029296875 128.9970703125 361.3 122.55 361.5 120.905859375 361.5 119.2 361.5 118.1353515625 361.4 117.1
M 336.5 90.05
Q 334.3494140625 89.75 332.05 89.75 319.85 89.75 311.2 98.35 302.6 107 302.6 119.2 302.6 131.4 311.2 140 319.85 148.65 332.05 148.65 333.791796875 148.65 335.45 148.45 326.713671875 146.913671875 320.05 140.25 311.4 131.6 311.4 119.35 311.4 107.1 320.05 98.4 327.11484375 91.37578125 336.5 90.05 Z"/>
</g>
</defs>

<g transform="matrix( 1.303619384765625, 0, 0, 1.303619384765625, 16.95,28.45) ">
<g transform="matrix( 1, 0, 0, 1, -85.5,-69.25) ">
<use xlink:href="#Symbol_14_0_Layer0_0_FILL"/>
</g>
</g>
</svg>
