<?xml version="1.0" encoding="UTF-8" standalone="no"?><!DOCTYPE svg PUBLIC "-//W3C//DTD SVG 1.1//EN" "http://www.w3.org/Graphics/SVG/1.1/DTD/svg11.dtd"><svg width="100%" height="100%" viewBox="0 0 48 48" version="1.1" xmlns="http://www.w3.org/2000/svg" xmlns:xlink="http://www.w3.org/1999/xlink" xml:space="preserve" xmlns:serif="http://www.serif.com/" style="fill-rule:evenodd;clip-rule:evenodd;stroke-linejoin:round;stroke-miterlimit:2;"><g id="OnLight"><g><g><path d="M6.404,24.533c0,0.752 0.16,1.369 0.481,1.852c0.321,0.482 0.75,0.873 1.287,1.172c0.538,0.299 1.161,0.545 1.868,0.738c0.708,0.193 1.439,0.367 2.193,0.521c1.038,0.232 2.018,0.487 2.943,0.767c0.924,0.28 1.778,0.699 2.561,1.259c0.783,0.56 1.415,1.317 1.896,2.272c0.481,0.955 0.721,2.195 0.721,3.719c0,1.389 -0.27,2.619 -0.81,3.69c-0.54,1.071 -1.303,1.968 -2.287,2.692c-0.984,0.724 -2.161,1.273 -3.531,1.65c-1.37,0.376 -2.875,0.564 -4.515,0.564c-1.003,0 -1.915,-0.053 -2.735,-0.159c-0.82,-0.106 -1.543,-0.241 -2.17,-0.405c-0.627,-0.164 -1.163,-0.333 -1.607,-0.507c-0.443,-0.173 -0.81,-0.337 -1.1,-0.492l0,-3.762c1.137,0.463 2.264,0.829 3.382,1.099c1.118,0.271 2.349,0.406 3.694,0.406c1.061,0 2.018,-0.097 2.87,-0.29c0.853,-0.193 1.587,-0.477 2.202,-0.854c0.616,-0.376 1.09,-0.849 1.421,-1.418c0.332,-0.569 0.498,-1.23 0.498,-1.982c0,-0.772 -0.152,-1.409 -0.455,-1.911c-0.303,-0.501 -0.71,-0.916 -1.222,-1.244c-0.511,-0.328 -1.103,-0.598 -1.775,-0.81c-0.673,-0.213 -1.379,-0.406 -2.117,-0.579c-0.966,-0.213 -1.946,-0.463 -2.941,-0.753c-0.994,-0.289 -1.899,-0.694 -2.713,-1.215c-0.815,-0.521 -1.473,-1.23 -1.975,-2.128c-0.502,-0.897 -0.753,-2.05 -0.753,-3.458c0,-1.447 0.261,-2.702 0.782,-3.763c0.521,-1.061 1.225,-1.939 2.113,-2.634c0.887,-0.694 1.919,-1.215 3.096,-1.563c1.177,-0.347 2.422,-0.521 3.734,-0.521c1.524,0 2.938,0.145 4.24,0.435c1.302,0.289 2.484,0.656 3.546,1.099l0,3.821c-1.13,-0.444 -2.274,-0.806 -3.432,-1.085c-1.158,-0.28 -2.348,-0.43 -3.572,-0.449c-1.036,0 -1.921,0.106 -2.655,0.318c-0.734,0.213 -1.337,0.507 -1.807,0.883c-0.471,0.376 -0.815,0.82 -1.031,1.331c-0.217,0.512 -0.325,1.076 -0.325,1.694Z" style="fill:#f00;fill-rule:nonzero;"/><path d="M39.621,17.21l5.846,0l-13.429,12.648l13.4,14.848l-5.586,0l-13.197,-14.645l-0.058,0l0,14.645l-4.486,0l0,-41.909l4.486,0l0,26.685l0.058,0l12.966,-12.272Z" style="fill:#f00;fill-rule:nonzero;"/><path d="M7.925,24.533c0,0.752 0.16,1.369 0.481,1.852c0.32,0.482 0.749,0.873 1.287,1.172c0.538,0.299 1.16,0.545 1.868,0.738c0.707,0.193 1.438,0.367 2.193,0.521c1.037,0.232 2.018,0.487 2.942,0.767c0.925,0.28 1.779,0.699 2.561,1.259c0.783,0.56 1.415,1.317 1.896,2.272c0.481,0.955 0.722,2.195 0.722,3.719c0,1.389 -0.27,2.619 -0.81,3.69c-0.541,1.071 -1.303,1.968 -2.287,2.692c-0.984,0.724 -2.161,1.273 -3.531,1.65c-1.37,0.376 -2.875,0.564 -4.515,0.564c-1.003,0 -1.915,-0.053 -2.735,-0.159c-0.82,-0.106 -1.544,-0.241 -2.171,-0.405c-0.627,-0.164 -1.162,-0.333 -1.606,-0.507c-0.444,-0.173 -0.81,-0.337 -1.1,-0.492l0,-3.762c1.137,0.463 2.264,0.829 3.382,1.099c1.117,0.271 2.349,0.406 3.694,0.406c1.061,0 2.017,-0.097 2.87,-0.29c0.852,-0.193 1.586,-0.477 2.202,-0.854c0.616,-0.376 1.09,-0.849 1.421,-1.418c0.332,-0.569 0.497,-1.23 0.497,-1.982c0,-0.772 -0.151,-1.409 -0.454,-1.911c-0.303,-0.501 -0.71,-0.916 -1.222,-1.244c-0.511,-0.328 -1.103,-0.598 -1.776,-0.81c-0.672,-0.213 -1.378,-0.406 -2.116,-0.579c-0.966,-0.213 -1.947,-0.463 -2.941,-0.753c-0.995,-0.289 -1.899,-0.694 -2.713,-1.215c-0.815,-0.521 -1.473,-1.23 -1.975,-2.128c-0.502,-0.897 -0.753,-2.05 -0.753,-3.458c0,-1.447 0.26,-2.702 0.781,-3.763c0.521,-1.061 1.226,-1.939 2.113,-2.634c0.888,-0.694 1.92,-1.215 3.097,-1.563c1.177,-0.347 2.422,-0.521 3.734,-0.521c1.524,0 2.937,0.145 4.24,0.435c1.302,0.289 2.484,0.656 3.545,1.099l0,3.821c-1.129,-0.444 -2.273,-0.806 -3.431,-1.085c-1.158,-0.28 -2.349,-0.43 -3.572,-0.449c-1.036,0 -1.921,0.106 -2.655,0.318c-0.735,0.213 -1.337,0.507 -1.808,0.883c-0.471,0.376 -0.814,0.82 -1.031,1.331c-0.216,0.512 -0.324,1.076 -0.324,1.694Z" style="fill:#00edff;fill-rule:nonzero;"/><path d="M41.141,17.21l5.847,0l-13.429,12.648l13.4,14.848l-5.586,0l-13.198,-14.645l-0.058,0l0,14.645l-4.486,0l0,-41.909l4.486,0l0,26.685l0.058,0l12.966,-12.272Z" style="fill:#00edff;fill-rule:nonzero;"/><path d="M12.291,16.502c1.203,0.044 2.332,0.184 3.389,0.419c1.302,0.289 2.484,0.656 3.546,1.099l0,3.276c-0.633,-0.205 -1.27,-0.386 -1.911,-0.54c-1.158,-0.28 -2.349,-0.43 -3.572,-0.449c-0.29,0 -0.567,0.008 -0.832,0.025c-0.229,-0.013 -0.458,-0.021 -0.689,-0.025c-1.036,0 -1.921,0.106 -2.655,0.318c-0.734,0.213 -1.337,0.507 -1.807,0.883c-0.471,0.376 -0.815,0.82 -1.031,1.331c-0.217,0.512 -0.325,1.076 -0.325,1.694c0,0.752 0.16,1.369 0.481,1.852c0.321,0.482 0.75,0.873 1.287,1.172c0.538,0.299 1.161,0.545 1.868,0.738c0.708,0.193 1.439,0.367 2.193,0.521c1.038,0.232 2.018,0.487 2.943,0.767c0.924,0.28 1.778,0.699 2.561,1.259c0.783,0.56 1.415,1.317 1.896,2.272c0.481,0.955 0.721,2.195 0.721,3.719c0,1.389 -0.27,2.619 -0.81,3.69c-0.54,1.071 -1.303,1.968 -2.287,2.692c-0.984,0.724 -2.161,1.273 -3.531,1.65c-1.169,0.321 -2.437,0.505 -3.803,0.552c-0.69,-0.021 -1.332,-0.07 -1.926,-0.147c-0.82,-0.106 -1.544,-0.241 -2.171,-0.405c-0.627,-0.164 -1.162,-0.333 -1.606,-0.507c-0.444,-0.173 -0.81,-0.337 -1.1,-0.492l0,-3.199c0.623,0.209 1.244,0.387 1.861,0.536c1.118,0.271 2.349,0.406 3.694,0.406c0.25,0 0.494,-0.006 0.732,-0.016c0.258,0.01 0.521,0.016 0.789,0.016c1.061,0 2.017,-0.097 2.87,-0.29c0.852,-0.193 1.586,-0.477 2.202,-0.854c0.616,-0.376 1.09,-0.849 1.421,-1.418c0.332,-0.569 0.497,-1.23 0.497,-1.982c0,-0.772 -0.151,-1.409 -0.454,-1.911c-0.303,-0.501 -0.71,-0.916 -1.222,-1.244c-0.511,-0.328 -1.103,-0.598 -1.776,-0.81c-0.672,-0.213 -1.378,-0.406 -2.116,-0.579c-0.966,-0.213 -1.947,-0.463 -2.941,-0.753c-0.995,-0.289 -1.899,-0.694 -2.713,-1.215c-0.815,-0.521 -1.473,-1.23 -1.975,-2.128c-0.502,-0.897 -0.753,-2.05 -0.753,-3.458c0,-1.447 0.26,-2.702 0.781,-3.763c0.521,-1.061 1.226,-1.939 2.113,-2.634c0.888,-0.694 1.92,-1.215 3.097,-1.563c0.975,-0.287 1.996,-0.456 3.064,-0.505Z" style="fill-rule:nonzero;"/><path d="M26.597,2.797l0,26.685l0.058,0l1.462,-1.385l0,1.385l0.058,0l12.966,-12.272l4.326,0l-13.429,12.648l13.4,14.848l-4.065,0l-13.198,-14.645l-0.058,0l0,1.623l-1.462,-1.623l-0.058,0l0,14.645l-2.966,0l0,-41.909l2.966,0Z" style="fill-rule:nonzero;"/></g></g></g></svg>