<?xml version="1.0" encoding="UTF-8" standalone="no"?>
<!DOCTYPE svg PUBLIC "-//W3C//DTD SVG 1.1//EN" "http://www.w3.org/Graphics/SVG/1.1/DTD/svg11.dtd">
<svg width="100%" height="100%" viewBox="0 0 456 456" version="1.1" xmlns="http://www.w3.org/2000/svg" xmlns:xlink="http://www.w3.org/1999/xlink" xml:space="preserve" xmlns:serif="http://www.serif.com/" style="fill-rule:evenodd;clip-rule:evenodd;stroke-linejoin:round;stroke-miterlimit:2;">
    <g>
        <path d="M226.65,128.2C224.883,128.1 223.1,128.05 221.3,128.05C193.867,128.05 170.45,137.733 151.05,157.1C131.683,176.5 122,199.917 122,227.35C122,254.783 131.683,278.183 151.05,297.55C170.35,316.85 193.65,326.55 220.95,326.65C198.55,324.183 179.067,314.667 162.5,298.1C143.067,278.667 133.35,255.183 133.35,227.65C133.35,200.117 143.067,176.617 162.5,157.15C180.467,139.217 201.85,129.567 226.65,128.2M291,285.5C307.067,269.467 315.1,250.1 315.1,227.4C315.1,204.7 307.067,185.317 291,169.25C274.967,153.217 255.6,145.2 232.9,145.2C231.067,145.2 229.267,145.25 227.5,145.35C247.5,146.717 264.75,154.65 279.25,169.15C295.283,185.183 303.3,204.533 303.3,227.2C303.3,249.867 295.283,269.2 279.25,285.2C263.983,300.5 245.667,308.5 224.3,309.2C227.1,309.467 229.967,309.6 232.9,309.6C255.6,309.6 274.967,301.567 291,285.5Z" style="fill:rgb(255,0,0);fill-rule:nonzero;"/>
        <path d="M291.5,297.55C310.9,278.183 320.6,254.783 320.6,227.35C320.6,199.917 310.9,176.5 291.5,157.1C273.4,139 251.783,129.367 226.65,128.2C201.85,129.567 180.467,139.217 162.5,157.15C143.067,176.617 133.35,200.117 133.35,227.65C133.35,255.183 143.067,278.667 162.5,298.1C179.067,314.667 198.55,324.183 220.95,326.65L221.3,326.65C248.733,326.65 272.133,316.95 291.5,297.55M315.1,227.4C315.1,250.1 307.067,269.467 291,285.5C274.967,301.567 255.6,309.6 232.9,309.6C229.967,309.6 227.1,309.467 224.3,309.2C223.3,309.233 222.283,309.25 221.25,309.25C198.583,309.25 179.233,301.233 163.2,285.2C147.2,269.2 139.2,249.867 139.2,227.2C139.2,204.533 147.2,185.183 163.2,169.15C179.233,153.15 198.583,145.15 221.25,145.15C223.35,145.15 225.433,145.217 227.5,145.35C229.267,145.25 231.067,145.2 232.9,145.2C255.6,145.2 274.967,153.217 291,169.25C307.067,185.317 315.1,204.7 315.1,227.4M218.05,215.35L218.05,202.85C213.383,201.083 208.15,200.2 202.35,200.2C198.983,200.2 195.767,200.617 192.7,201.45C189.6,202.217 186.833,203.383 184.4,204.95C182,206.55 180.05,208.517 178.55,210.85C177.15,213.183 176.45,215.9 176.45,219C176.45,221.433 176.767,223.583 177.4,225.45C178.167,227.317 179.25,229 180.65,230.5C182.05,231.9 183.767,233.2 185.8,234.4C187.867,235.533 190.217,236.6 192.85,237.6C194.983,238.467 196.9,239.183 198.6,239.75C200.267,240.383 201.75,241.083 203.05,241.85C204.283,242.683 205.267,243.617 206,244.65C206.767,245.583 207.15,246.8 207.15,248.3C207.15,253.433 202.8,256 194.1,256C187.633,256 181.7,253.933 176.3,249.8L176.3,263.15C181.433,265.483 187.45,266.65 194.35,266.65C198.017,266.65 201.433,266.267 204.6,265.5C207.867,264.667 210.717,263.467 213.15,261.9C215.683,260.4 217.7,258.433 219.2,256C220.7,253.567 221.45,250.767 221.45,247.6C221.45,244.967 221.017,242.667 220.15,240.7C219.317,238.833 218.15,237.15 216.65,235.65C215.083,234.15 213.217,232.85 211.05,231.75C208.917,230.517 206.483,229.35 203.75,228.25C201.717,227.583 199.9,226.967 198.3,226.4C196.7,225.767 195.35,225.117 194.25,224.45C193.017,223.717 192.117,222.833 191.55,221.8C191.017,220.867 190.75,219.733 190.75,218.4C190.75,217.3 191.017,216.283 191.55,215.35C192.117,214.417 192.917,213.617 193.95,212.95C194.983,212.283 196.25,211.767 197.75,211.4C199.25,211.033 200.883,210.85 202.65,210.85C208.45,210.85 213.583,212.35 218.05,215.35M238.15,171.2L223.75,171.2L223.75,265.1L238.15,265.1L238.15,234.7L238.45,234.7L263,265.1L281.2,265.1L252.75,232.3L278.95,201.6L261.7,201.6L238.45,230.75L238.15,230.75L238.15,171.2Z" style="fill:white;fill-rule:nonzero;"/>
        <path d="M227.5,145.35C225.433,145.217 223.35,145.15 221.25,145.15C198.583,145.15 179.233,153.15 163.2,169.15C147.2,185.183 139.2,204.533 139.2,227.2C139.2,249.867 147.2,269.2 163.2,285.2C179.233,301.233 198.583,309.25 221.25,309.25C222.283,309.25 223.3,309.233 224.3,309.2C205.267,307.4 188.75,299.5 174.75,285.5C158.717,269.467 150.7,250.1 150.7,227.4C150.7,204.7 158.717,185.317 174.75,169.25C189.517,154.517 207.1,146.55 227.5,145.35M320.6,227.35C320.6,254.783 310.9,278.183 291.5,297.55C272.133,316.95 248.733,326.65 221.3,326.65L220.95,326.65C224.883,327.083 228.9,327.3 233,327.3C260.533,327.3 284.017,317.567 303.45,298.1C322.917,278.667 332.65,255.183 332.65,227.65C332.65,200.117 322.917,176.617 303.45,157.15C284.017,137.717 260.533,128 233,128C230.867,128 228.75,128.067 226.65,128.2C251.783,129.367 273.4,139 291.5,157.1C310.9,176.5 320.6,199.917 320.6,227.35Z" style="fill:rgb(0,204,255);fill-rule:nonzero;"/>
    </g>
</svg>
