<?xml version="1.0" encoding="UTF-8" standalone="no"?>
<!DOCTYPE svg PUBLIC "-//W3C//DTD SVG 1.1//EN" "http://www.w3.org/Graphics/SVG/1.1/DTD/svg11.dtd">
<svg width="100%" height="100%" viewBox="0 0 550 160" version="1.1" xmlns="http://www.w3.org/2000/svg" xmlns:xlink="http://www.w3.org/1999/xlink" xml:space="preserve" xmlns:serif="http://www.serif.com/" style="fill-rule:evenodd;clip-rule:evenodd;stroke-linejoin:round;stroke-miterlimit:2;">
    <g transform="matrix(1.30362,0,0,1.30362,16.95,28.45)">
        <g id="Background" transform="matrix(0.785416,0,0,1.34614,-18.271,-75.3844)">
            <path d="M543.543,62.976C543.543,56.174 534.078,50.651 522.419,50.651L28.168,50.651C16.509,50.651 7.044,56.174 7.044,62.976L7.044,111.698C7.044,118.501 16.509,124.023 28.168,124.023L522.419,124.023C534.078,124.023 543.543,118.501 543.543,111.698L543.543,62.976Z" style="fill:white;"/>
        </g>
        <g id="StereoKit" transform="matrix(1,0,0,1,-85.5,-69.25)">
            <path d="M135.7,93.1L126.85,93.1L126.85,102.55L135.7,102.55L135.7,132.35C135.7,142.15 140.783,147.05 150.95,147.05C154.783,147.05 157.867,146.467 160.2,145.3L160.2,135.85C158.7,137.017 156.95,137.6 154.95,137.6C152.283,137.6 150.417,136.95 149.35,135.65C148.183,134.25 147.6,131.983 147.6,128.85L147.6,102.55L160.2,102.55L160.2,93.1L147.6,93.1L147.6,77.5L135.7,81L135.7,93.1M99.15,93C96.583,93.633 94.283,94.6 92.25,95.9C90.25,97.233 88.633,98.867 87.4,100.8C86.233,102.733 85.65,104.983 85.65,107.55C85.65,109.583 85.917,111.367 86.45,112.9C87.083,114.467 87.983,115.867 89.15,117.1C90.283,118.267 91.717,119.35 93.45,120.35C95.15,121.283 97.083,122.183 99.25,123.05C101.05,123.75 102.65,124.333 104.05,124.8C105.45,125.333 106.683,125.917 107.75,126.55C108.783,127.25 109.6,128.017 110.2,128.85C110.833,129.65 111.15,130.667 111.15,131.9C111.15,136.167 107.533,138.3 100.3,138.3C94.933,138.3 90,136.6 85.5,133.2L85.5,144.25C89.767,146.183 94.783,147.15 100.55,147.15C103.583,147.15 106.417,146.85 109.05,146.25C111.75,145.55 114.117,144.533 116.15,143.2C118.25,141.967 119.917,140.333 121.15,138.3C122.383,136.3 123,133.967 123,131.3C123,129.133 122.65,127.233 121.95,125.6C121.25,124.067 120.283,122.667 119.05,121.4C117.75,120.167 116.2,119.083 114.4,118.15C112.6,117.15 110.583,116.183 108.35,115.25C106.65,114.717 105.133,114.217 103.8,113.75C102.467,113.183 101.333,112.633 100.4,112.1C99.4,111.467 98.667,110.733 98.2,109.9C97.733,109.1 97.5,108.167 97.5,107.1C97.5,106.167 97.733,105.317 98.2,104.55C98.667,103.75 99.333,103.083 100.2,102.55C101.033,102.017 102.083,101.583 103.35,101.25C104.583,100.95 105.933,100.8 107.4,100.8C112.233,100.8 116.5,102.05 120.2,104.55L120.2,94.15C116.333,92.683 112,91.95 107.2,91.95C104.4,91.95 101.717,92.3 99.15,93M205.7,98.8C201.767,94.233 196.183,91.95 188.95,91.95C181.817,91.95 175.8,94.517 170.9,99.65C166.067,104.85 163.65,111.517 163.65,119.65C163.65,128.35 165.867,135.117 170.3,139.95C174.667,144.75 180.733,147.15 188.5,147.15C196.4,147.15 202.767,145.633 207.6,142.6L207.6,132.95C202.867,136.283 197.7,137.95 192.1,137.95C187.033,137.95 183.067,136.633 180.2,134C177.333,131.367 175.817,127.633 175.65,122.8L211.65,122.8L211.65,118.15C211.65,109.917 209.667,103.467 205.7,98.8M197.1,104.3C199.133,106.7 200.15,110.033 200.15,114.3L175.65,114.3C176.283,110.267 177.767,107.017 180.1,104.55C182.5,101.983 185.417,100.7 188.85,100.7C192.317,100.7 195.067,101.9 197.1,104.3M291.9,98.8C287.933,94.233 282.35,91.95 275.15,91.95C267.983,91.95 261.967,94.517 257.1,99.65C252.267,104.85 249.85,111.517 249.85,119.65C249.85,128.35 252.067,135.117 256.5,139.95C260.833,144.75 266.883,147.15 274.65,147.15C282.583,147.15 288.95,145.633 293.75,142.6L293.75,132.95C289.017,136.283 283.867,137.95 278.3,137.95C273.233,137.95 269.267,136.633 266.4,134C263.533,131.367 262.017,127.633 261.85,122.8L297.85,122.8L297.85,118.15C297.85,109.917 295.867,103.467 291.9,98.8M275,100.7C278.5,100.7 281.267,101.9 283.3,104.3C285.3,106.7 286.3,110.033 286.3,114.3L261.85,114.3C262.483,110.267 263.967,107.017 266.3,104.55C268.7,101.983 271.6,100.7 275,100.7M248.8,93.25C247.733,92.55 246.1,92.2 243.9,92.2C240.9,92.2 238.183,93.25 235.75,95.35C233.35,97.417 231.567,100.317 230.4,104.05L230.2,104.05L230.2,93.1L218.3,93.1L218.3,145.9L230.2,145.9L230.2,120.6C230.2,115.167 231.4,110.85 233.8,107.65C236.133,104.417 239.083,102.8 242.65,102.8C245.35,102.8 247.4,103.383 248.8,104.55L248.8,93.25M352.85,98.35C348.197,93.697 342.747,90.931 336.5,90.05C330.243,90.934 324.76,93.717 320.05,98.4C314.283,104.2 311.4,111.183 311.4,119.35C311.4,127.517 314.283,134.483 320.05,140.25C324.492,144.692 329.626,147.426 335.45,148.45C342.135,147.76 347.935,144.943 352.85,140C357.81,135.068 360.627,129.252 361.3,122.55C360.702,126.848 358.785,130.615 355.55,133.85C351.55,137.85 346.733,139.85 341.1,139.85C339.494,139.85 337.944,139.683 336.45,139.35C336.438,139.344 336.422,139.327 336.4,139.3C336.364,139.327 336.33,139.344 336.3,139.35C334.9,139.65 333.433,139.8 331.9,139.8C326.267,139.8 321.45,137.8 317.45,133.8C313.483,129.833 311.5,125.033 311.5,119.4C311.5,113.767 313.483,108.95 317.45,104.95C321.45,100.983 326.267,99 331.9,99C333.433,99 334.9,99.15 336.3,99.45L336.35,99.45C336.399,99.445 336.449,99.428 336.5,99.4C337.964,99.1 339.497,98.95 341.1,98.95C346.733,98.95 351.55,100.95 355.55,104.95C358.994,108.394 360.944,112.444 361.4,117.1C360.963,109.863 358.113,103.613 352.85,98.35M456.95,94.5L448.1,94.5L448.1,103.95L456.95,103.95L456.95,133.75C456.95,143.55 462.033,148.45 472.2,148.45C476,148.45 479.067,147.867 481.4,146.7L481.4,137.25C479.933,138.417 478.2,139 476.2,139C473.533,139 471.667,138.35 470.6,137.05C469.433,135.65 468.85,133.383 468.85,130.25L468.85,103.95L481.4,103.95L481.4,94.5L468.85,94.5L468.85,78.9L456.95,82.4L456.95,94.5M441.25,94.5L429.35,94.5L429.35,147.3L441.25,147.3L441.25,94.5M423.3,94.5L408.95,94.5L389.65,118.75L389.4,118.75L389.4,69.25L377.4,69.25L377.4,147.3L389.4,147.3L389.4,122L389.65,122L410,147.3L425.15,147.3L401.5,120L423.3,94.5M435.3,69.95C433.367,69.95 431.733,70.567 430.4,71.8C428.933,73.133 428.2,74.767 428.2,76.7C428.2,78.7 428.933,80.333 430.4,81.6C431.733,82.833 433.367,83.45 435.3,83.45C437.4,83.45 439.15,82.833 440.55,81.6C441.95,80.2 442.65,78.567 442.65,76.7C442.65,74.767 441.95,73.133 440.55,71.8C439.15,70.567 437.4,69.95 435.3,69.95Z" style="fill-rule:nonzero;"/>
            <path d="M336.35,99.45L336.3,99.45C334.9,99.15 333.433,99 331.9,99C326.267,99 321.45,100.983 317.45,104.95C313.483,108.95 311.5,113.767 311.5,119.4C311.5,125.033 313.483,129.833 317.45,133.8C321.45,137.8 326.267,139.8 331.9,139.8C333.433,139.8 334.9,139.65 336.3,139.35C336.33,139.344 336.364,139.327 336.4,139.3C332.738,138.504 329.488,136.688 326.65,133.85C322.65,129.85 320.65,125.033 320.65,119.4C320.65,113.767 322.65,108.95 326.65,104.95C329.472,102.128 332.706,100.294 336.35,99.45M341,89.75C339.465,89.75 337.965,89.85 336.5,90.05C342.747,90.931 348.197,93.697 352.85,98.35C358.113,103.613 360.963,109.863 361.4,117.1C361.5,117.85 361.55,118.617 361.55,119.4C361.55,120.477 361.467,121.527 361.3,122.55C360.627,129.252 357.81,135.068 352.85,140C347.935,144.943 342.135,147.76 335.45,148.45C337.239,148.783 339.089,148.95 341,148.95C349.167,148.95 356.133,146.05 361.9,140.25C367.7,134.483 370.6,127.517 370.6,119.35C370.6,111.183 367.7,104.2 361.9,98.4C356.133,92.633 349.167,89.75 341,89.75Z" style="fill:rgb(0,204,255);fill-rule:nonzero;"/>
            <path d="M361.4,117.1C360.944,112.444 358.994,108.394 355.55,104.95C351.55,100.95 346.733,98.95 341.1,98.95C339.497,98.95 337.964,99.1 336.5,99.4C336.449,99.428 336.399,99.445 336.35,99.45C340.095,100.229 343.412,102.062 346.3,104.95C350.3,108.95 352.3,113.767 352.3,119.4C352.3,125.033 350.3,129.833 346.3,133.8C343.423,136.71 340.123,138.543 336.4,139.3C336.422,139.327 336.438,139.344 336.45,139.35C337.944,139.683 339.494,139.85 341.1,139.85C346.733,139.85 351.55,137.85 355.55,133.85C358.785,130.615 360.702,126.848 361.3,122.55C361.433,121.454 361.5,120.337 361.5,119.2C361.5,118.49 361.467,117.79 361.4,117.1M336.5,90.05C335.066,89.85 333.583,89.75 332.05,89.75C323.917,89.75 316.967,92.617 311.2,98.35C305.467,104.117 302.6,111.067 302.6,119.2C302.6,127.333 305.467,134.267 311.2,140C316.967,145.767 323.917,148.65 332.05,148.65C333.211,148.65 334.345,148.583 335.45,148.45C329.626,147.426 324.492,144.692 320.05,140.25C314.283,134.483 311.4,127.517 311.4,119.35C311.4,111.183 314.283,104.2 320.05,98.4C324.76,93.717 330.243,90.934 336.5,90.05Z" style="fill:rgb(255,0,0);fill-rule:nonzero;"/>
        </g>
    </g>
</svg>
